<svg width="27" height="21" viewBox="0 0 27 21" fill="none" xmlns="http://www.w3.org/2000/svg">
<mask id="mask0_252_11911" style="mask-type:luminance" maskUnits="userSpaceOnUse" x="0" y="0" width="13" height="21">
<path d="M0 0H12.7323V20.5323H0V0Z" fill="white"/>
</mask>
<g mask="url(#mask0_252_11911)">
<path d="M6.98668 8.78789C5.70965 8.78789 4.53421 9.21369 3.58442 9.92269C3.67781 6.96262 5.9647 4.00148 10.477 1.03963L9.80738 0C3.2693 4.06457 0 8.52553 0 13.3818C0 15.612 0.606344 17.3598 1.82028 18.6222C3.03332 19.8871 4.56933 20.5179 6.42668 20.5179C8.2851 20.5179 9.7826 20.0106 10.9222 18.9941C12.0611 17.9793 12.6313 16.7513 12.6313 15.3149C12.6313 15.2987 12.6282 15.2868 12.6282 15.2695C12.6632 15.0148 12.6878 14.7572 12.6878 14.4911C12.6878 11.3421 10.1344 8.78789 6.98668 8.78789Z" fill="#FFCE5A"/>
</g>
<mask id="mask1_252_11911" style="mask-type:luminance" maskUnits="userSpaceOnUse" x="13" y="0" width="14" height="21">
<path d="M13.9644 0H27V20.5323H13.9644V0Z" fill="white"/>
</mask>
<g mask="url(#mask1_252_11911)">
<path d="M25.4195 18.4293C25.4933 18.344 25.5826 18.2627 25.6505 18.1734C26.4901 17.1796 27.0002 15.8965 27.0002 14.4915C27.0002 11.3425 24.4472 8.78736 21.2996 8.78736C19.8577 8.78736 18.5454 9.32704 17.5409 10.2111C17.5409 10.176 17.5352 10.1462 17.5352 10.11C17.5352 7.0872 19.8381 4.06279 24.4456 1.03909L23.7765 0C17.2377 4.06457 13.9683 8.52553 13.9683 13.3831C13.9683 15.6131 14.5748 17.3605 15.7893 18.6231C17.0021 19.8878 18.5378 20.5195 20.3951 20.5195C22.2525 20.5195 23.7518 20.0113 24.8907 18.9945C25.0518 18.8526 25.1769 18.6933 25.3148 18.5411C25.3512 18.5049 25.3838 18.4671 25.4195 18.4293Z" fill="#FFCE5A"/>
</g>
</svg>
