<svg width="61" height="40" viewBox="0 0 61 40" fill="none" xmlns="http://www.w3.org/2000/svg">
<path d="M44.9672 33.7288C45.5558 33.7288 46.0342 33.2589 46.0342 32.68C46.0342 31.4671 45.8884 30.2885 45.6165 29.1561H59.9329C60.5215 29.1561 61 28.6855 61 28.1073C61 23.4377 58.0388 19.4379 53.8654 17.8207C55.7686 16.5325 57.0188 14.3752 57.0188 11.9382C57.0188 7.99955 53.7583 4.7972 49.7519 4.7972C45.7464 4.7972 42.4851 8.00104 42.4851 11.9382C42.4851 14.3714 43.7307 16.522 45.6272 17.8118C43.7664 18.5286 42.1244 19.7281 40.8705 21.3207C39.2831 19.9206 37.4011 18.8345 35.3285 18.1683C38.3391 16.5041 40.3776 13.3353 40.3776 9.70554C40.3776 4.35261 35.9459 0 30.5011 0C25.0556 0 20.6247 4.35485 20.6247 9.70554C20.6247 13.3353 22.6632 16.5041 25.6731 18.1683C23.6004 18.8367 21.7199 19.9206 20.1318 21.3207C18.8771 19.7296 17.2374 18.5286 15.3751 17.8118C17.2708 16.522 18.5164 14.37 18.5164 11.9382C18.5164 7.99955 15.2559 4.7972 11.2496 4.7972C7.24326 4.7972 3.98277 8.00104 3.98277 11.9382C3.98277 14.3767 5.23289 16.5325 7.13465 17.8207C2.96125 19.4379 0 23.4377 0 28.1073C0 28.6855 0.478479 29.1561 1.06708 29.1561H15.3835C15.1101 30.287 14.9658 31.4671 14.9658 32.68C14.9658 33.2589 15.4442 33.7288 16.0328 33.7288H22.951C24.2072 35.6869 26.5176 37.7062 29.93 39.8359C30.1039 39.9441 30.3037 40 30.5027 40C30.7016 40 30.9014 39.9455 31.0753 39.8359C34.4854 37.7062 36.7966 35.6869 38.0543 33.7288H44.9725H44.9672ZM49.7504 6.8948C52.5811 6.8948 54.8823 9.15652 54.8823 11.9382C54.8823 14.7198 52.5811 16.9815 49.7504 16.9815C46.9206 16.9815 44.6185 14.7198 44.6185 11.9382C44.6185 9.15652 46.9206 6.8948 49.7504 6.8948ZM49.7504 19.1515C54.4145 19.1515 58.2734 22.6127 58.8036 27.06H44.9436C44.3193 25.5182 43.4474 24.0986 42.375 22.8506C44.0884 20.5233 46.7922 19.1515 49.7504 19.1515ZM22.7574 9.70554C22.7574 5.51032 26.2298 2.09761 30.4989 2.09761C34.7687 2.09761 38.2411 5.51032 38.2411 9.70554C38.2411 13.9015 34.7687 17.3135 30.4989 17.3135C26.2298 17.3135 22.7574 13.9015 22.7574 9.70554ZM11.2481 6.8948C14.0779 6.8948 16.3799 9.15652 16.3799 11.9382C16.3799 14.7198 14.0779 16.9815 11.2481 16.9815C8.41743 16.9815 6.11542 14.7198 6.11542 11.9382C6.11542 9.15652 8.41743 6.8948 11.2481 6.8948ZM2.19493 27.06C2.72505 22.6127 6.58326 19.1515 11.2481 19.1515C14.2078 19.1515 16.9101 20.5218 18.6227 22.8506C17.5503 24.0986 16.6769 25.5182 16.0541 27.06H2.19493ZM17.1394 31.6312C17.6855 24.8572 23.469 19.511 30.4989 19.511C37.5295 19.511 43.3122 24.8587 43.8591 31.6312H39.0006C39.0735 31.3537 39.1252 31.077 39.1533 30.801C39.4115 28.3587 37.951 26.5491 36.3872 25.8397C34.8181 25.128 32.5396 25.0549 30.4989 26.7363C28.4589 25.0549 26.1781 25.128 24.6105 25.8397C23.049 26.5491 21.587 28.3587 21.8445 30.801C21.8733 31.077 21.925 31.3552 21.9979 31.6312H17.1394ZM37.0297 30.5839C36.8786 32.0191 35.6064 34.4039 30.4989 37.7025C25.392 34.4039 24.1199 32.0191 23.9688 30.5839C23.8191 29.1718 24.6341 28.1402 25.506 27.7448C25.9328 27.5509 26.3741 27.4569 26.8168 27.4569C27.8293 27.4569 28.8485 27.9514 29.7022 28.8958C29.9049 29.1196 30.1951 29.2472 30.4989 29.2472C30.8034 29.2472 31.0951 29.1196 31.2963 28.8958C32.5237 27.5389 34.0905 27.1085 35.4925 27.7448C36.3659 28.1417 37.1786 29.1733 37.0297 30.5839Z" fill="white"/>
</svg>
